<?xml version="1.0" encoding="utf-8"?>
<!-- Generator: Adobe Illustrator 26.0.1, SVG Export Plug-In . SVG Version: 6.00 Build 0)  -->
<svg version="1.1" id="Calque_1" xmlns="http://www.w3.org/2000/svg" xmlns:xlink="http://www.w3.org/1999/xlink" x="0px" y="0px"
	 viewBox="0 0 90.4 90.4" style="enable-background:new 0 0 90.4 90.4;" xml:space="preserve">
<style type="text/css">
	.st0{fill:#FFFFFF;}
	.st1{fill:none;stroke:#000000;stroke-miterlimit:10;}
</style>
<circle cx="57.6" cy="8.8" r="1.2"/>
<circle cx="59.1" cy="27.4" r="1.6"/>
<circle cx="47.9" cy="16" r="1.1"/>
<circle cx="30.3" cy="25.5" r="1.1"/>
<circle cx="35.2" cy="26.6" r="0.9"/>
<circle cx="42" cy="25.5" r="1"/>
<circle cx="26.3" cy="18.4" r="0.9"/>
<circle cx="26.3" cy="18.4" r="0.9"/>
<circle cx="43.5" cy="19.7" r="0.9"/>
<circle cx="13.3" cy="38.4" r="0.9"/>
<circle cx="17" cy="37.6" r="0.9"/>
<circle cx="16.3" cy="49.8" r="1"/>
<circle cx="11.1" cy="60.9" r="1"/>
<circle cx="15.3" cy="53.8" r="0.9"/>
<circle cx="49.4" cy="81" r="0.9"/>
<circle cx="25.5" cy="67.2" r="0.7"/>
<circle cx="30" cy="21.5" r="0.7"/>
<circle cx="37.1" cy="23.4" r="0.7"/>
<circle cx="50.3" cy="19.9" r="0.7"/>
<circle cx="47.5" cy="12" r="0.7"/>
<circle cx="21.9" cy="71.6" r="0.9"/>
<circle cx="56.9" cy="68.5" r="1.2"/>
<circle cx="63.5" cy="72.6" r="1.5"/>
<circle cx="43.7" cy="75.1" r="1.5"/>
<circle cx="27.7" cy="62.4" r="1.3"/>
<circle cx="21.6" cy="66.5" r="1.3"/>
<circle cx="26.5" cy="56.3" r="1.3"/>
<circle cx="16.1" cy="41.8" r="1.2"/>
<circle cx="10" cy="29.5" r="1.1"/>
<circle cx="22.2" cy="18.7" r="1.1"/>
<circle cx="21.5" cy="44.5" r="1.3"/>
<circle cx="10.6" cy="43.3" r="1.2"/>
<circle cx="54.2" cy="76.6" r="3"/>
<circle cx="22.9" cy="26.1" r="2.6"/>
<circle cx="55.9" cy="16.8" r="3.2"/>
<circle cx="16.1" cy="32.2" r="1.6"/>
<circle cx="35.5" cy="71.6" r="2.3"/>
<circle cx="16.6" cy="62.1" r="1.8"/>
<circle cx="19.8" cy="54.4" r="1.7"/>
<circle cx="22.4" cy="35.3" r="1.7"/>
<circle cx="47.3" cy="22.8" r="1.7"/>
<circle cx="66.8" cy="15.5" r="1.9"/>
<path d="M53.1,73.8c-1.2-3.7-2.4-7.3-3.6-11"/>
<path d="M36.1,69.4l2.3-6.3"/>
<path d="M28.6,61.3l2.6-2.4"/>
<path d="M55.2,73.7c0.4-1.3,0.9-2.7,1.3-4.1"/>
<path d="M56.9,75.3l5.1-2.2"/>
<path d="M45.1,75.2l6.2,0.9"/>
<path d="M22.9,66.7l1.8,0.3"/>
<path d="M22.7,72l1.5,1"/>
<path d="M21.5,72.5c-0.1,0.5-0.2,1-0.4,1.5"/>
<path d="M20.9,71.7L19,71.8"/>
<path d="M21.3,70.9L20.3,70"/>
<path d="M21.6,70.7l0-2.9"/>
<path d="M20.7,65.6L18,63.3"/>
<path d="M25.2,56l-3.8-1.4"/>
<path d="M27.3,51.9l-5.9,2"/>
<path d="M26.5,44.8l-3.6-0.2"/>
<path d="M28.6,38.5L24,36"/>
<path d="M42.3,29.6c-0.1-1-0.1-2-0.2-3.1"/>
<path d="M31.8,34.3l-6.9-6.5"/>
<path d="M46.4,29.8c0.2-1.8,0.5-3.6,0.7-5.4"/>
<path d="M50.2,30.9l4.5-11.2"/>
<path d="M54.5,33.5l3.7-4.8"/>
<path d="M20.3,43.8l-3.1-1.7"/>
<path d="M15.5,40.8l-1.6-1.8"/>
<path d="M16.8,36.8c-0.1-1-0.3-2-0.4-3"/>
<path d="M30.3,24.4c-0.1-0.8-0.2-1.5-0.3-2.3"/>
<path d="M35.5,25.9l1.3-1.9"/>
<path d="M35,29.1c0-0.5,0-1.1,0-1.6"/>
<path d="M41.5,24.7l-0.7-1.4"/>
<path d="M46,21.7l-1.8-1.5"/>
<path d="M42.6,19.3l-1.4-0.5"/>
<path d="M49.9,20.3l-1.3,1.4"/>
<path d="M11.1,30l3.7,1.6"/>
<path d="M17.2,31.1l3.7-3.3"/>
<path d="M25.5,25.9l3.7-0.2"/>
<path d="M31.4,25.7l2.9,0.6"/>
<path d="M59.1,16.4l5.8-0.5"/>
<path d="M56.7,13.7c0.2-1.3,0.4-2.5,0.6-3.8"/>
<path d="M46.8,16l-1.3-0.2"/>
<path d="M49.4,14.5l-0.7,0.8"/>
<path d="M47.6,12.9c0.1,0.7,0.1,1.4,0.2,2.1"/>
<path d="M46.3,18.2l1.1-1.2"/>
<path d="M49,16l3.8,0.4"/>
<path d="M36,27l1,0.4"/>
<path d="M23.3,18.7l2.1-0.1"/>
<path d="M22.3,19.9l0.4,3.6"/>
<path d="M18.8,53L17,50.5"/>
<path d="M15.5,52.9c0.2-0.7,0.4-1.4,0.7-2.1"/>
<path d="M17,49.1l1.3-1.3"/>
<path d="M16.4,48.8c-0.1-0.6-0.3-1.2-0.4-1.9"/>
<path d="M13.8,45.8l1.3,0.3"/>
<path d="M15,42l-3.3,1"/>
<path d="M17.2,60.5l1.9-4.6"/>
<path d="M12.1,61.2l2.8,0.6"/>
<path d="M50,80.5l1.8-1.9"/>
<path d="M14.8,64.9l1-1.4"/>
<circle class="st0" cx="59.1" cy="27.4" r="1"/>
<circle class="st0" cx="66.8" cy="15.5" r="1.1"/>
<circle class="st0" cx="47.9" cy="16" r="0.7"/>
<circle class="st0" cx="30.3" cy="25.5" r="0.7"/>
<circle class="st0" cx="35.2" cy="26.6" r="0.5"/>
<circle cx="42" cy="25.5" r="0.5"/>
<circle class="st0" cx="26.3" cy="18.4" r="0.5"/>
<circle class="st0" cx="43.5" cy="19.7" r="0.5"/>
<circle class="st0" cx="13.3" cy="38.4" r="0.5"/>
<circle class="st0" cx="17" cy="37.6" r="0.5"/>
<circle class="st0" cx="16.3" cy="49.8" r="0.5"/>
<circle class="st0" cx="11.1" cy="60.9" r="0.5"/>
<circle class="st0" cx="15.3" cy="53.8" r="0.4"/>
<circle cx="37.1" cy="27.4" r="0.4"/>
<circle cx="45.2" cy="15.7" r="0.5"/>
<circle cx="46" cy="18.6" r="0.5"/>
<circle cx="49.8" cy="14.2" r="0.5"/>
<circle cx="13.3" cy="45.6" r="0.5"/>
<circle cx="35" cy="29.6" r="0.5"/>
<circle cx="40.6" cy="18.6" r="0.6"/>
<circle cx="40.6" cy="22.8" r="0.5"/>
<circle class="st0" cx="49.4" cy="81" r="0.4"/>
<circle class="st0" cx="25.5" cy="67.2" r="0.3"/>
<circle cx="20" cy="69.8" r="0.5"/>
<circle cx="21" cy="74.5" r="0.6"/>
<circle cx="24.7" cy="73.3" r="0.6"/>
<circle cx="14.4" cy="65.4" r="0.7"/>
<circle cx="18.6" cy="47.4" r="0.7"/>
<circle cx="15.8" cy="46.2" r="0.8"/>
<circle cx="18.4" cy="71.8" r="0.7"/>
<circle class="st0" cx="30" cy="21.5" r="0.3"/>
<circle cx="37.1" cy="23.4" r="0.3"/>
<circle cx="50.3" cy="19.9" r="0.3"/>
<circle cx="47.5" cy="12" r="0.3"/>
<circle class="st0" cx="21.9" cy="71.6" r="0.5"/>
<circle class="st0" cx="56.9" cy="68.5" r="0.8"/>
<circle class="st0" cx="63.5" cy="72.6" r="0.8"/>
<circle class="st0" cx="43.7" cy="75.1" r="0.8"/>
<circle class="st0" cx="27.7" cy="62.4" r="0.7"/>
<circle class="st0" cx="21.6" cy="66.5" r="0.7"/>
<circle class="st0" cx="26.5" cy="56.3" r="0.8"/>
<circle class="st0" cx="16.1" cy="41.8" r="0.7"/>
<circle class="st0" cx="10" cy="29.5" r="0.7"/>
<circle class="st0" cx="22.2" cy="18.7" r="0.7"/>
<circle class="st0" cx="21.5" cy="44.5" r="0.8"/>
<circle class="st0" cx="10.6" cy="43.3" r="0.6"/>
<circle class="st0" cx="54.2" cy="76.6" r="2"/>
<circle class="st0" cx="22.9" cy="26.1" r="1.5"/>
<circle class="st0" cx="55.9" cy="16.8" r="2"/>
<circle class="st0" cx="16.1" cy="32.2" r="0.9"/>
<circle class="st0" cx="35.5" cy="71.6" r="1.4"/>
<circle class="st0" cx="16.6" cy="62.1" r="1"/>
<circle class="st0" cx="19.8" cy="54.4" r="1"/>
<circle class="st0" cx="22.4" cy="35.3" r="1"/>
<circle class="st0" cx="47.3" cy="22.8" r="1"/>
<circle class="st0" cx="57.6" cy="8.8" r="0.7"/>
<path class="st1" d="M56.4,58.1c-6.3,7.1-17.1,7.7-24.2,1.4s-7.7-17.1-1.4-24.2s17.1-7.7,24.2-1.4c1.7,1.5,3.1,3.4,4.1,5.5"/>
<path d="M53.8,51.6c0,0-0.1,0.1-0.1,0.2c-0.1,0.1,0,0.2-0.1,0.2c-0.1,0.1-0.2,0.1-0.3,0.2c-0.1,0.1,0,0.1-0.1,0.2
	c0,0.1-0.1,0.2-0.2,0.3c-0.1,0.1-0.3,0.2-0.4,0.2c-0.2,0.1-0.3,0-0.4,0.1C52,53.1,52,53.2,52,53.3c0,0.2,0,0.3,0,0.5
	c0,0.3,0.1,0.4,0,0.5c0,0.1-0.1,0-0.2,0.2c-0.1,0.1-0.1,0.2-0.2,0.3c0,0.1,0,0.2,0,0.4c0,0.2,0,0.4,0,0.6c0,0.1,0,0.2,0.1,0.3
	c0,0.1,0,0.2,0.1,0.2c0.1,0,0.1,0.1,0.2,0.1c0.1,0,0.1,0,0.2,0c0.1,0,0.1-0.1,0.2-0.1c0.1,0,0.2,0,0.3,0c0.1,0,0.1-0.1,0.2-0.2
	c0.1-0.2,0.1-0.2,0.1-0.3c0-0.1,0-0.1,0.1-0.2c0.1-0.1,0.1-0.2,0.2-0.3c0,0,0-0.1,0-0.2c0-0.1,0.1-0.1,0.1-0.2c0-0.1,0-0.1,0.1-0.2
	c0-0.1,0-0.1,0.1-0.2c0.1-0.1,0.1-0.2,0.2-0.3c0.1-0.1,0.1-0.3,0.1-0.4c0,0,0-0.1,0-0.2c0,0,0.1-0.1,0.1-0.1c0,0,0.1-0.1,0.1-0.2
	c0.1-0.1,0.1-0.1,0.2-0.2c0-0.1,0-0.2,0-0.2c0-0.1-0.1-0.1-0.1-0.2s0-0.1,0-0.2s0-0.1-0.1-0.2c-0.1-0.2,0-0.3-0.1-0.3
	C53.9,51.6,53.8,51.6,53.8,51.6z"/>
<path d="M54.3,43.6c-0.2,0-0.2,0.2-0.5,0.3c-0.2,0.1-0.2,0-0.6,0c-0.2,0-0.3,0-0.4,0.1c-0.2,0.1-0.2,0.2-0.4,0.2
	c-0.1,0-0.2-0.1-0.3-0.2c-0.1-0.2,0-0.3,0-0.5c-0.1-0.5-1.2-0.5-1.4-1c-0.1-0.2,0.1-0.3,0-0.6c-0.2-0.3-0.5-0.2-0.6-0.5
	s0.1-0.5,0-0.7c-0.1-0.2-0.4-0.1-0.6-0.4c-0.1-0.2,0-0.2-0.1-0.5c-0.1-0.4-0.5-0.4-0.6-0.7c-0.1-0.3,0.3-0.4,0.3-0.8
	c0-0.3-0.1-0.5-0.3-0.7c-0.2-0.1-0.3,0-0.7-0.1c-0.3-0.1-0.4-0.2-0.5-0.1c-0.1,0.1-0.1,0.2-0.2,0.2c-0.1,0.1-0.2,0-0.5,0
	c-0.6-0.1-0.5-0.1-0.7-0.2c-0.2,0-0.4-0.1-0.5-0.2c-0.3-0.1-0.3-0.2-0.5-0.2c-0.3,0-0.5,0.1-0.7,0.3c-0.1,0.2,0.1,0.5,0,0.6
	c-0.2,0.1-0.6-0.2-0.7-0.3c-0.4-0.3-0.4-0.4-0.6-0.5c-0.3-0.1-0.4,0.1-0.7,0c-0.1,0-0.3-0.2-0.3-0.3s0.1-0.2,0.1-0.3
	s-0.2-0.2-0.2-0.3c0-0.1,0.2-0.2,0.2-0.3c0-0.1-0.2-0.3-0.5-0.3c-0.2,0-0.2,0.1-0.5,0.1c-0.2,0-0.2-0.1-0.5,0s-0.2,0.1-0.4,0.1
	c-0.2,0-0.3-0.1-0.5-0.1c-0.2,0-0.2,0.1-0.4,0.1c-0.2,0-0.3,0-0.5,0c-0.1,0-0.1,0.1-0.3,0.2c-0.1,0-0.2,0.1-0.3,0.1
	c-0.2,0.1-0.5,0.2-0.8,0c-0.2-0.1-0.2-0.2-0.3-0.2c-0.1,0-0.1,0.1-0.4,0.3c-0.1,0.1-0.2,0.2-0.4,0.2c-0.1,0-0.1,0-0.2,0.1
	s-0.2,0.1-0.3,0.2C36.1,37,36,37.1,36,37.3c-0.1,0.2,0,0.3-0.1,0.5c0,0.1-0.1,0.2-0.2,0.2c-0.1,0.1-0.2,0.2-0.4,0.2
	c-0.2,0-0.3,0-0.4,0c-0.1,0,0,0.1-0.2,0.3c-0.1,0.1-0.2,0.3-0.3,0.4c-0.1,0.1-0.2,0.1-0.2,0.1c-0.1,0.1,0,0.2-0.1,0.4
	s-0.2,0.1-0.4,0.3c-0.1,0.1-0.2,0.3-0.3,0.5c-0.2,0.3-0.2,0.3-0.2,0.4c0,0.2,0.2,0.2,0.2,0.4c0,0.1,0,0.1-0.1,0.3
	c0,0.2,0.1,0.3,0,0.5c0,0.1-0.1,0.1-0.2,0.3c-0.1,0.2,0,0.2-0.1,0.3c-0.1,0.2-0.2,0.2-0.3,0.3c0,0.1,0,0.2,0,0.3
	c0,0.1,0,0.2,0.1,0.3c0,0.2,0,0.2,0,0.4c0,0.1,0.2,0.3,0.5,0.6s0.4,0.4,0.4,0.5c0.1,0.2-0.1,0.3,0,0.5c0.1,0.3,0.4,0.2,0.7,0.5
	c0.2,0.2,0.2,0.4,0.4,0.5c0.2,0,0.3,0.1,0.4,0.2c0.1,0.1,0.1,0.1,0.2,0.1c0.2,0,0.3-0.1,0.5-0.2c0.2-0.1,0.4-0.1,0.6-0.1
	c0.4,0,0.4,0.2,0.7,0.2c0.2,0,0.2-0.1,0.8-0.3c0.2-0.1,0.4-0.2,0.7-0.2c0.2,0,0.4,0,0.6,0.1c0.3,0.2,0.2,0.4,0.4,0.6
	c0.2,0.1,0.3,0.1,0.5,0c0.2-0.1,0.2-0.1,0.3-0.1c0.2,0,0.3,0.2,0.4,0.3c0,0.1,0,0.2,0,0.5s0,0.5-0.1,0.6c-0.1,0.1-0.2,0.1-0.2,0.2
	s0.1,0.2,0.3,0.5c0.3,0.4,0.2,0.5,0.4,0.7c0.2,0.2,0.2,0.2,0.3,0.3c0.1,0.1,0,0.2,0.1,0.3c0.1,0.2,0.2,0.2,0.2,0.4
	c0.1,0.2-0.1,0.3,0,0.6c0,0.2,0.1,0.2,0.2,0.4c0,0.1,0.1,0.2,0,0.3c0,0.2-0.3,0.3-0.4,0.6c0,0.2-0.1,0.3-0.1,0.5
	c-0.1,0.2-0.1,0.5-0.1,0.8c0,0.1,0,0.2,0,0.3c0.1,0.2,0.2,0.2,0.3,0.4c0.2,0.2,0,0.3,0.2,0.5c0.2,0.3,0.4,0.2,0.4,0.5
	s-0.1,0.3,0,0.5c0,0.1,0.1,0.1,0.2,0.2c0.1,0.3,0,0.4,0.1,0.6c0.1,0.4,0.4,0.3,0.6,0.7c0.1,0.2,0,0.2,0.1,0.4
	c0.1,0.2,0.3,0.2,0.3,0.4s-0.1,0.2-0.1,0.4c0,0.2,0,0.3,0.2,0.4c0.1,0.1,0.2,0.2,0.3,0.2c0.2,0.1,0.4,0.1,0.5,0
	c0.1-0.1,0.1-0.1,0.2-0.2c0.1,0,0.3-0.1,0.4,0c0.2,0,0.3,0,0.5,0.1c0.2,0,0.4,0,0.6-0.1c0.2-0.1,0.2-0.2,0.8-0.6
	c0.5-0.3,0.5-0.3,0.6-0.5c0.1-0.2,0.2-0.3,0.3-0.5c0.1-0.1,0.1-0.2,0.2-0.2c0.1-0.1,0.1-0.3,0.2-0.4c0.1-0.2,0-0.3,0.1-0.3
	c0.1-0.1,0.3,0,0.6-0.2c0.1-0.1,0.2-0.2,0.2-0.3c0-0.1,0-0.1,0.1-0.6c0-0.3,0-0.4,0-0.5c-0.1-0.1-0.1-0.1-0.1-0.2
	c0-0.2,0.1-0.3,0.2-0.4c0.2-0.2,0.3-0.1,0.5-0.3c0.2-0.1,0.1-0.1,0.3-0.2c0.2-0.2,0.3-0.1,0.5-0.2c0.1-0.1,0.2-0.2,0.3-0.3
	c0.1-0.1,0.2-0.2,0.2-0.4c0-0.1-0.1-0.2-0.1-0.3c0-0.2,0.1-0.3,0.1-0.8c0-0.1,0-0.2,0-0.3c-0.1-0.1-0.2-0.1-0.2-0.2
	C51,50.8,51,50.7,51,50.5c0-0.3,0.1-0.3,0-0.5c0-0.1-0.1-0.1-0.2-0.2c0-0.1,0-0.2,0-0.3c0.1-0.3,0.3-0.5,0.5-0.8
	c0.4-0.4,0.2-0.4,0.6-0.8c0.3-0.3,0.5-0.5,0.9-0.8c0.3-0.3,0.4-0.3,0.7-0.6c0.2-0.2,0.3-0.4,0.5-0.6c0.1-0.2,0-0.2,0.2-0.5
	c0.2-0.3,0.3-0.3,0.3-0.6c0-0.2,0-0.3,0.1-0.4c0.1-0.1,0.1-0.1,0.2-0.2c0-0.1,0-0.1-0.1-0.3c0-0.2,0.1-0.3,0-0.4
	C54.5,43.6,54.4,43.6,54.3,43.6z"/>
<path d="M61.2,54.2L60.1,57h-4.5l6.3-16.4h4.6L72.7,57h-4.5l-1.1-2.8C67.1,54.2,61.2,54.2,61.2,54.2z M64.2,45.7L64.2,45.7l-1.8,5.2
	H66L64.2,45.7z"/>
<path d="M66.6,40.6h7.8c2.2,0,4.3,0.8,5.9,2.4c1.6,1.6,2.4,3.5,2.4,5.8s-0.8,4.2-2.5,5.8c-1.6,1.5-3.7,2.4-5.9,2.4h-1.6L66.6,40.6z
	 M72.6,53.4h1c1.2,0,2.4-0.3,3.3-1.1c0.9-0.7,1.4-1.9,1.4-3.5c0-1.5-0.4-2.6-1.3-3.4c-0.9-0.8-2-1.2-3.4-1.2h-1L72.6,53.4z"/>
</svg>
